<mxfile host="app.diagrams.net" modified="2023-05-30T14:49:00.907Z" agent="Mozilla/5.0 (Windows NT 10.0; Win64; x64) AppleWebKit/537.36 (KHTML, like Gecko) Chrome/113.0.0.0 Safari/537.36" etag="ckc23DidmnAXyokx4Sfx" version="21.3.5" type="google">
  <diagram name="Page-1" id="tiq6zMHHWExNTbmNxgJH">
    <mxGraphModel grid="1" page="1" gridSize="10" guides="1" tooltips="1" connect="1" arrows="1" fold="1" pageScale="1" pageWidth="850" pageHeight="1100" math="0" shadow="0">
      <root>
        <mxCell id="0" />
        <mxCell id="1" parent="0" />
        <mxCell id="0apgcPwFX0APaQ1LetzD-1" value="AD010-seller_manage_inventory" style="text;html=1;align=center;verticalAlign=middle;resizable=0;points=[];autosize=1;strokeColor=none;fillColor=none;" vertex="1" parent="1">
          <mxGeometry x="160" y="8" width="200" height="30" as="geometry" />
        </mxCell>
        <mxCell id="0apgcPwFX0APaQ1LetzD-2" value="" style="ellipse;html=1;shape=startState;fillColor=#000000;strokeColor=#ff0000;" vertex="1" parent="1">
          <mxGeometry x="150" y="70" width="30" height="30" as="geometry" />
        </mxCell>
        <mxCell id="0apgcPwFX0APaQ1LetzD-3" value="" style="edgeStyle=orthogonalEdgeStyle;html=1;verticalAlign=bottom;endArrow=open;endSize=8;strokeColor=#ff0000;rounded=0;" edge="1" parent="1" source="0apgcPwFX0APaQ1LetzD-2" target="0apgcPwFX0APaQ1LetzD-4">
          <mxGeometry relative="1" as="geometry">
            <mxPoint x="165" y="130" as="targetPoint" />
          </mxGeometry>
        </mxCell>
        <mxCell id="0apgcPwFX0APaQ1LetzD-9" value="" style="edgeStyle=orthogonalEdgeStyle;rounded=0;orthogonalLoop=1;jettySize=auto;html=1;" edge="1" parent="1" source="0apgcPwFX0APaQ1LetzD-4" target="0apgcPwFX0APaQ1LetzD-5">
          <mxGeometry relative="1" as="geometry" />
        </mxCell>
        <mxCell id="0apgcPwFX0APaQ1LetzD-4" value="seller navigates to website" style="rounded=1;whiteSpace=wrap;html=1;" vertex="1" parent="1">
          <mxGeometry x="115" y="130" width="100" height="40" as="geometry" />
        </mxCell>
        <mxCell id="0apgcPwFX0APaQ1LetzD-8" value="no" style="edgeStyle=orthogonalEdgeStyle;rounded=0;orthogonalLoop=1;jettySize=auto;html=1;" edge="1" parent="1" source="0apgcPwFX0APaQ1LetzD-5" target="0apgcPwFX0APaQ1LetzD-6">
          <mxGeometry relative="1" as="geometry" />
        </mxCell>
        <mxCell id="0apgcPwFX0APaQ1LetzD-12" value="Yes" style="edgeStyle=orthogonalEdgeStyle;rounded=0;orthogonalLoop=1;jettySize=auto;html=1;" edge="1" parent="1" source="0apgcPwFX0APaQ1LetzD-5" target="0apgcPwFX0APaQ1LetzD-11">
          <mxGeometry relative="1" as="geometry" />
        </mxCell>
        <mxCell id="0apgcPwFX0APaQ1LetzD-5" value="is logged in?" style="rhombus;whiteSpace=wrap;html=1;" vertex="1" parent="1">
          <mxGeometry x="122.5" y="200" width="85" height="50" as="geometry" />
        </mxCell>
        <mxCell id="0apgcPwFX0APaQ1LetzD-10" style="edgeStyle=orthogonalEdgeStyle;rounded=0;orthogonalLoop=1;jettySize=auto;html=1;exitX=1;exitY=0.5;exitDx=0;exitDy=0;entryX=0.5;entryY=0;entryDx=0;entryDy=0;" edge="1" parent="1" source="0apgcPwFX0APaQ1LetzD-6" target="0apgcPwFX0APaQ1LetzD-5">
          <mxGeometry relative="1" as="geometry" />
        </mxCell>
        <mxCell id="0apgcPwFX0APaQ1LetzD-6" value="log in (AD001)&amp;nbsp;" style="rounded=1;whiteSpace=wrap;html=1;" vertex="1" parent="1">
          <mxGeometry x="240" y="250" width="90" height="40" as="geometry" />
        </mxCell>
        <mxCell id="0apgcPwFX0APaQ1LetzD-14" value="" style="edgeStyle=orthogonalEdgeStyle;rounded=0;orthogonalLoop=1;jettySize=auto;html=1;" edge="1" parent="1" source="0apgcPwFX0APaQ1LetzD-11" target="0apgcPwFX0APaQ1LetzD-13">
          <mxGeometry relative="1" as="geometry" />
        </mxCell>
        <mxCell id="0apgcPwFX0APaQ1LetzD-11" value="navigate to sellers dashboard" style="rounded=1;whiteSpace=wrap;html=1;" vertex="1" parent="1">
          <mxGeometry x="117.5" y="310" width="95" height="40" as="geometry" />
        </mxCell>
        <mxCell id="0apgcPwFX0APaQ1LetzD-16" value="" style="edgeStyle=orthogonalEdgeStyle;rounded=0;orthogonalLoop=1;jettySize=auto;html=1;" edge="1" parent="1" source="0apgcPwFX0APaQ1LetzD-13" target="0apgcPwFX0APaQ1LetzD-15">
          <mxGeometry relative="1" as="geometry" />
        </mxCell>
        <mxCell id="0apgcPwFX0APaQ1LetzD-13" value="manage Inventory" style="rounded=1;whiteSpace=wrap;html=1;" vertex="1" parent="1">
          <mxGeometry x="118.75" y="400" width="92.5" height="40" as="geometry" />
        </mxCell>
        <mxCell id="0apgcPwFX0APaQ1LetzD-18" value="" style="edgeStyle=orthogonalEdgeStyle;rounded=0;orthogonalLoop=1;jettySize=auto;html=1;" edge="1" parent="1" source="0apgcPwFX0APaQ1LetzD-15" target="0apgcPwFX0APaQ1LetzD-17">
          <mxGeometry relative="1" as="geometry" />
        </mxCell>
        <mxCell id="0apgcPwFX0APaQ1LetzD-15" value="select product" style="rounded=1;whiteSpace=wrap;html=1;" vertex="1" parent="1">
          <mxGeometry x="120" y="470" width="90" height="40" as="geometry" />
        </mxCell>
        <mxCell id="0apgcPwFX0APaQ1LetzD-20" style="edgeStyle=orthogonalEdgeStyle;rounded=0;orthogonalLoop=1;jettySize=auto;html=1;exitX=1;exitY=0.5;exitDx=0;exitDy=0;entryX=0.5;entryY=0;entryDx=0;entryDy=0;" edge="1" parent="1" source="0apgcPwFX0APaQ1LetzD-17" target="0apgcPwFX0APaQ1LetzD-19">
          <mxGeometry relative="1" as="geometry" />
        </mxCell>
        <mxCell id="0apgcPwFX0APaQ1LetzD-22" style="edgeStyle=orthogonalEdgeStyle;rounded=0;orthogonalLoop=1;jettySize=auto;html=1;exitX=0.5;exitY=1;exitDx=0;exitDy=0;" edge="1" parent="1" source="0apgcPwFX0APaQ1LetzD-17" target="0apgcPwFX0APaQ1LetzD-21">
          <mxGeometry relative="1" as="geometry" />
        </mxCell>
        <mxCell id="0apgcPwFX0APaQ1LetzD-17" value="" style="rhombus;whiteSpace=wrap;html=1;" vertex="1" parent="1">
          <mxGeometry x="131.25" y="530" width="67.5" height="40" as="geometry" />
        </mxCell>
        <mxCell id="0apgcPwFX0APaQ1LetzD-26" value="" style="edgeStyle=orthogonalEdgeStyle;rounded=0;orthogonalLoop=1;jettySize=auto;html=1;" edge="1" parent="1" source="0apgcPwFX0APaQ1LetzD-19" target="0apgcPwFX0APaQ1LetzD-23">
          <mxGeometry relative="1" as="geometry" />
        </mxCell>
        <mxCell id="0apgcPwFX0APaQ1LetzD-19" value="update quantity" style="rounded=1;whiteSpace=wrap;html=1;" vertex="1" parent="1">
          <mxGeometry x="260" y="610" width="90" height="40" as="geometry" />
        </mxCell>
        <mxCell id="0apgcPwFX0APaQ1LetzD-25" value="" style="edgeStyle=orthogonalEdgeStyle;rounded=0;orthogonalLoop=1;jettySize=auto;html=1;" edge="1" parent="1" source="0apgcPwFX0APaQ1LetzD-21" target="0apgcPwFX0APaQ1LetzD-23">
          <mxGeometry relative="1" as="geometry" />
        </mxCell>
        <mxCell id="0apgcPwFX0APaQ1LetzD-21" value="remove product from listing&amp;nbsp;" style="rounded=1;whiteSpace=wrap;html=1;" vertex="1" parent="1">
          <mxGeometry x="117.5" y="610" width="95" height="40" as="geometry" />
        </mxCell>
        <mxCell id="0apgcPwFX0APaQ1LetzD-23" value="" style="shape=line;html=1;strokeWidth=6;strokeColor=#ff0000;" vertex="1" parent="1">
          <mxGeometry x="115" y="700" width="200" height="10" as="geometry" />
        </mxCell>
        <mxCell id="0apgcPwFX0APaQ1LetzD-24" value="" style="edgeStyle=orthogonalEdgeStyle;html=1;verticalAlign=bottom;endArrow=open;endSize=8;strokeColor=#ff0000;rounded=0;entryX=0.5;entryY=0;entryDx=0;entryDy=0;" edge="1" parent="1" source="0apgcPwFX0APaQ1LetzD-23" target="0apgcPwFX0APaQ1LetzD-27">
          <mxGeometry relative="1" as="geometry">
            <mxPoint x="215" y="750" as="targetPoint" />
          </mxGeometry>
        </mxCell>
        <mxCell id="0apgcPwFX0APaQ1LetzD-28" style="edgeStyle=orthogonalEdgeStyle;rounded=0;orthogonalLoop=1;jettySize=auto;html=1;exitX=0;exitY=0.5;exitDx=0;exitDy=0;entryX=0;entryY=0.5;entryDx=0;entryDy=0;" edge="1" parent="1" source="0apgcPwFX0APaQ1LetzD-27" target="0apgcPwFX0APaQ1LetzD-11">
          <mxGeometry relative="1" as="geometry">
            <Array as="points">
              <mxPoint x="70" y="780" />
              <mxPoint x="70" y="330" />
            </Array>
          </mxGeometry>
        </mxCell>
        <mxCell id="0apgcPwFX0APaQ1LetzD-29" value="No" style="edgeLabel;html=1;align=center;verticalAlign=middle;resizable=0;points=[];" connectable="0" vertex="1" parent="0apgcPwFX0APaQ1LetzD-28">
          <mxGeometry x="-0.5393" y="-2" relative="1" as="geometry">
            <mxPoint as="offset" />
          </mxGeometry>
        </mxCell>
        <mxCell id="0apgcPwFX0APaQ1LetzD-31" style="edgeStyle=orthogonalEdgeStyle;rounded=0;orthogonalLoop=1;jettySize=auto;html=1;exitX=1;exitY=0.5;exitDx=0;exitDy=0;entryX=0.5;entryY=0;entryDx=0;entryDy=0;" edge="1" parent="1" source="0apgcPwFX0APaQ1LetzD-27" target="0apgcPwFX0APaQ1LetzD-30">
          <mxGeometry relative="1" as="geometry" />
        </mxCell>
        <mxCell id="0apgcPwFX0APaQ1LetzD-27" value="confirm inventory changes" style="rhombus;whiteSpace=wrap;html=1;" vertex="1" parent="1">
          <mxGeometry x="162.5" y="750" width="105" height="60" as="geometry" />
        </mxCell>
        <mxCell id="0apgcPwFX0APaQ1LetzD-33" style="edgeStyle=orthogonalEdgeStyle;rounded=0;orthogonalLoop=1;jettySize=auto;html=1;exitX=0.5;exitY=1;exitDx=0;exitDy=0;" edge="1" parent="1" source="0apgcPwFX0APaQ1LetzD-30" target="0apgcPwFX0APaQ1LetzD-32">
          <mxGeometry relative="1" as="geometry" />
        </mxCell>
        <mxCell id="0apgcPwFX0APaQ1LetzD-30" value="save changes" style="rounded=1;whiteSpace=wrap;html=1;" vertex="1" parent="1">
          <mxGeometry x="260" y="810" width="80" height="40" as="geometry" />
        </mxCell>
        <mxCell id="0apgcPwFX0APaQ1LetzD-32" value="" style="ellipse;html=1;shape=endState;fillColor=#000000;strokeColor=#ff0000;" vertex="1" parent="1">
          <mxGeometry x="285" y="880" width="30" height="30" as="geometry" />
        </mxCell>
      </root>
    </mxGraphModel>
  </diagram>
</mxfile>
